<svg version="1.2" xmlns="http://www.w3.org/2000/svg" viewBox="0 0 300 300" width="100%" height="100%">
	<style>
		.s0 { fill: #5c5957;stroke: #242220;paint-order:stroke fill markers;stroke-linejoin: round;stroke-width: 12 } 
		.s1 { fill: #474543 } 
		.s2 { fill: #85817e } 
		.s3 { fill: #242220 } 
		.s4 { fill: #5c5957 } 
	</style>
	<path id="body" class="s0" d="m100 219c0 0 6.3-22.4 31.5-40.8 8.6-6.2 35-25.3 15.8-48.7 0 0-21.9 23.9-31.3 24.5-9.4 0.6-16.4-0.1-22 8-5.5 7.9-6.6 10.3-6.6 10.3 0 0-2.5 3.3-6.5 2.6-6.4-1.3-17.4-4.5-25.4-10.7-7.9-6.2-2.4-16.9 1.5-22.2 3.9-5.3 12.3-17.2 17-24 4.7-6.8 11.5-21.8 14.5-32.7 1.8-6.4 9.1-13.5 13.5-17.3 4.4-3.8 10-10.4 10.3-19.2 0.3-8.8 3.9-9.5 6.7-10.8 1.8-0.8 4 2.4 5.5 3.9 1.3 1.4 17.5 17.1 17.5 17.1 0 0 64.5 3.1 85 68.7 8.6 27.4 3.4 54.3-8 92l-29-2.7h-21l-44 1-25 4z"/>
	<path id="shadow" fill-rule="evenodd" class="s1" d="m94 162c-5.5 7.9-6.6 10.3-6.6 10.3 0 0-2.5 3.3-6.5 2.6q0-0.1 0-0.1c2.4-2.5 8.4-9.5 12.1-22 1.5-5.1 3.9-9.3 12.5-4.6 3.9 2.1 6.5 4.1 8.8 5.9-8.5 0.5-15 0.3-20.3 7.9zm133-34.3c8.6 27.4 3.4 54.3-8 92l-29-2.7h-21l-9.2 0.2 14.5-1.8c0 0 2.3-14.5 21.7-36.2 9.1-10.2 42.7-90.6-45.6-119.1 18.1 3.4 60.6 16.6 76.6 67.6zm-79.6 1.8c0 0 10.1-16 12-20.4 0.2-0.3 7.8 15.5-5.8 42.1 1.4-6.5 0.1-13.8-6.2-21.6z"/>
	<path id="highlight" fill-rule="evenodd" class="s2" d="m57 142c3.9-5.3 12.3-17.2 17-24 4.7-6.8 11.5-21.8 14.5-32.7 1.8-6.4 9.1-13.5 13.5-17.3 4.4-3.8 10-10.4 10.3-19.2 0.3-8.8 3.9-9.5 6.7-10.8 0.6-0.3 1.3-0.1 2 0.4 4.7 20.9 3 24.9-5 29.6-9.9 5.8-20 18.6-22.4 28.7-3.2 13.7-6.5 16.1-11.7 23.6-4 5.9-22.5 27.5-30.4 36.6-0.4-5.4 2.9-11.4 5.5-14.9z"/>
	<path id="Layer 3" class="s3" d="m107 102c0 0 2.5-17.6 14-19 4-0.5 9.9 3.3 9.6 9.1-0.2 5.9-7.2 7-10.6 6.9-3.4-0.1-10.3-0.9-13 3z"/>
	<g id="black-foot">
		<path id="outter" class="s3" d="m71 270.8c0 0-0.3-16.1 1.2-27.6 2.5-19.5 18.1-28.1 86.8-28.1v55.9zm176-0.1c0 0 0.3-16-1.2-27.6-2.5-19.4-18.1-28.1-86.8-28.1v56z"/>
		<path id="inner" class="s4" d="m77.6 264.9c0 0-0.3-12.6 1.1-21.7 2.3-15.3 16.7-22.2 80.3-22.2v44.1zm162.7 0c0 0 0.4-12.7-1-21.8-2.3-15.3-16.7-22.1-80.3-22.1v44.1z"/>
		<path id="highlight" fill-rule="evenodd" class="s2" d="m159 221c58.6 0 75.4 5.8 79.5 18.7-5.3-2.2-24.3-7.7-79.5-7.7-53.7 0-74 5.5-79.4 7.4 4.3-12.6 21.4-18.4 79.4-18.4z"/>
	</g>
</svg>