<svg version="1.2" xmlns="http://www.w3.org/2000/svg" viewBox="0 0 300 300" width="100%" height="100%">
	<style>
		.s0 { fill: #5c5957;stroke: #242220;paint-order:stroke fill markers;stroke-linejoin: round;stroke-width: 12 } 
		.s1 { fill: #474543 } 
		.s2 { fill: #85817e } 
		.s3 { fill: #242220 } 
		.s4 { fill: #5c5957 } 
	</style>
	<path id="head" class="s0" d="m82 67.1l2.7 36.2c0 0 0.3 12 16.3 18.7l1 1 45-3 50.3 3.1 1.7-1.1c0 0 15.6-4.7 17-23 0.9-12.1 2-32 2-32 0 0-7.7-5.7-23-6l-6 27h-20l-3-31c0 0-20.7-3.5-31.3-0.1l-3.7 31.1h-20l-6-27c0 0-16.8 1.4-23 6.1z"/>
	<path id="head-shadow" fill-rule="evenodd" class="s1" d="m218 67c0 0-1.1 19.9-2 32-1.4 18.3-17 23-17 23l-1.7 1.1-15.2-0.9c5.3-3.4 13.2-9.9 16.9-15.2 4.5-6.6 9.3-35.4 10.7-43.8 5.5 1.8 8.3 3.8 8.3 3.8z"/>
	<path id="head-highlight" fill-rule="evenodd" class="s2" d="m134.7 56.9c4-1.3 9.5-1.6 14.8-1.4-8.3 5.4-14.1 14-16.8 18.4zm60.3 4.1c3.7 0.1 6.9 0.5 9.8 1-5.1 4.2-10.3 10.6-13.3 14.6zm-110.3 42.3l-2.7-36.2c3-2.3 8.5-3.8 13.4-4.7-8.4 14.9-8.1 39.3-7.7 49.2-2.9-4.5-3-8.3-3-8.3z"/>
	<path id="body" class="s0" d="m104 128c0 0 49.8-8.2 92 0l11 90c0 0-76.3-7-114 1z"/>
	<path id="body-shadow" fill-rule="evenodd" class="s1" d="m196 128l11 90c0 0-7.6-0.7-19.1-1.4-1.6-32-9.5-63-22.3-74.4-11.8-10.4-24.7-15.1-33.9-17.1 18-1.2 42.2-1.4 64.3 2.9z"/>
	<g id="foot">
		<path id="outter" class="s3" d="m62 270.8c0 0-0.3-16.1 1.2-27.6 2.5-19.5 18-28.1 86.8-28.1v55.9zm176-0.1c0 0 0.3-16-1.2-27.6-2.5-19.4-18.1-28.1-86.8-28.1v56z"/>
		<path id="inner" class="s4" d="m68.6 264.9c0 0-0.3-12.6 1.1-21.7 2.3-15.3 16.7-22.2 80.3-22.2v44.1zm162.7 0c0 0 0.3-12.7-1-21.8-2.3-15.3-16.8-22.1-80.3-22.1v44.1z"/>
		<path id="highlight" fill-rule="evenodd" class="s2" d="m150 221c58.5 0 75.4 5.8 79.5 18.7-5.3-2.2-24.3-7.7-79.5-7.7-53.7 0-74 5.5-79.4 7.4 4.3-12.6 21.4-18.4 79.4-18.4z"/>
	</g>
</svg>