<svg version="1.2" xmlns="http://www.w3.org/2000/svg" viewBox="0 0 300 300" width="100%" height="100%">
	<style>
		.s0 { fill: #f9f9f9;stroke: #403e3d;paint-order:stroke fill markers;stroke-linejoin: round;stroke-width: 14 } 
		.s1 { fill: #d1d0cf } 
		.s2 { fill: #403e3d } 
		.s3 { fill: #f9f9f9 } 
	</style>
	<path id="body" class="s0" d="m95 218l-44.7-108.9 13.3-1.2 43.4 46.1 5-91.6 11.1 1.3 27.9 79.3 29.1-85 10.6 11 3.3 85 39.3-41.3 11.7 11.3-39 94-2 2-54-3-52 3zm-36.5-92c-10.8 0-19.5-8.7-19.5-19.5 0-10.8 8.7-19.5 19.5-19.5 10.8 0 19.5 8.7 19.5 19.5 0 10.8-8.7 19.5-19.5 19.5zm57.5-45.5c-11.6 0-21-9.4-21-21 0-11.6 9.4-21 21-21 11.6 0 21 9.4 21 21 0 11.6-9.4 21-21 21zm69-0.5c-11.6 0-21-9.4-21-21 0-11.6 9.4-21 21-21 11.6 0 21 9.4 21 21 0 11.6-9.4 21-21 21zm57.5 46.5c-10.8 0-19.5-8.7-19.5-19.5 0-10.8 8.7-19.5 19.5-19.5 10.8 0 19.5 8.7 19.5 19.5 0 10.8-8.7 19.5-19.5 19.5z"/>
	<path id="shadow" fill-rule="evenodd" class="s1" d="m78 106.5c0 4.6-1.6 8.8-4.2 12.2l22 23.4v0.2l-27.9-24.5c0 0-3-1.3 1.1-14.8 1.9-6.2 1.3-10.1 0.1-12.8 5.4 3.4 8.9 9.4 8.9 16.3zm59-47c0 7.3-3.7 13.7-9.3 17.4l19.2 54.5v0.3l-24.9-53.7c0 0-4.6-8.4 2.8-17 3.6-4.1 5.5-11 4.7-17.6 4.6 3.9 7.5 9.6 7.5 16.1zm69-0.5c0 9.5-6.3 17.5-14.9 20.1l2.6 66.7-8.7-63.8c0 0-1.2-9.1 2-13 3.2-3.8 15.8-14.8 9.8-27.4 5.6 3.8 9.2 10.2 9.2 17.4zm56 48c0 10.3-7.9 18.7-18 19.4l-38 91.6-2 2-52.2-2.9 1-2.1c0 0 28.8-7.2 58.1-47.6 11-15.2 26.2-43 26.2-43 0 0 3.1-4.9 7.8-6.7 4.5-1.6 15.8-6.8 11.4-24.5 3.5 3.5 5.7 8.4 5.7 13.8z"/>
	<g id="white-foot">
		<path id="outter" class="s2" d="m62 270.8c0 0-0.3-16.1 1.2-27.6 2.5-19.5 18-28.1 86.8-28.1v55.9zm176-0.1c0 0 0.3-16-1.2-27.6-2.5-19.4-18.1-28.1-86.8-28.1v56z"/>
		<path id="inner" class="s3" d="m68.6 264.9c0 0-0.3-12.6 1.1-21.7 2.3-15.3 16.7-22.2 80.3-22.2v44.1zm162.7 0c0 0 0.3-12.7-1-21.8-2.3-15.3-16.8-22.1-80.3-22.1v44.1z"/>
	</g>
</svg>