<svg version="1.2" xmlns="http://www.w3.org/2000/svg" viewBox="0 0 1024 1024" width="100%" height="100%">
	<path fill-rule="evenodd" d="m707.9 39c62.2 25.7 118.6 63.4 166.1 111 47.6 47.5 85.3 104 111 166.1 25.8 62.1 39 128.7 39 195.9 0 207.1-124.7 393.8-316.1 473-191.3 79.3-411.5 35.5-557.9-110.9-146.5-146.5-190.3-366.7-111-558 79.2-191.3 265.9-316.1 473-316.1 67.2 0 133.8 13.3 195.9 39zm-195.9 127.7q-2 0-4 0.2-2 0.2-4 0.7-1.9 0.5-3.8 1.3-1.8 0.8-3.6 1.8-1.6 1.1-3.1 2.5-1.4 1.4-2.7 3-1.2 1.6-2.2 3.4-0.9 1.7-1.6 3.6l-75.1 196.3-209.4 10.8q-2.1 0.4-4.1 1.1-2 0.8-3.8 1.8-1.9 1-3.6 2.3-1.7 1.2-3.3 2.7-1.5 1.3-2.9 2.8-1.3 1.5-2.5 3.2-1.1 1.6-2.1 3.4-0.9 1.8-1.6 3.7-0.6 2-0.9 4-0.3 2-0.3 4 0 2 0.3 4 0.3 2 0.9 4 0.6 1.9 1.4 3.7 0.8 1.8 1.9 3.5 1 1.6 2.4 3.1 1.3 1.5 2.9 2.7l162.7 128.6-56.9 202.5q-0.6 2-1 4-0.3 2-0.3 4 0 2 0.3 4 0.4 2 1 4 0.7 1.8 1.7 3.6 0.9 1.8 2.2 3.4 1.2 1.6 2.6 2.9 1.5 1.4 3.2 2.6 1.5 1.2 3.3 2.2 1.7 1 3.6 1.6 1.9 0.7 3.9 1 1.9 0.3 3.9 0.3 2.1 0.1 4.1-0.2 2.1-0.2 4-0.8 2-0.6 3.8-1.5 1.8-0.9 3.5-2.1l175.8-113.7 175.8 113.7c2.2 1.6 4.6 2.8 7.1 3.6 2.6 0.8 5.3 1.2 8 1.2 2.6 0 5.3-0.4 7.9-1.2 2.5-0.8 4.9-2 7.1-3.6q1.7-1.1 3.1-2.5 1.5-1.4 2.7-3 1.3-1.6 2.2-3.3 1-1.8 1.7-3.7 0.5-1.9 0.8-3.9 0.3-2 0.3-4 0-2.1-0.3-4.1-0.3-2-0.8-3.9l-56.9-202.5 169.5-131.4q1.6-1.3 2.9-2.8 1.4-1.4 2.5-3.1 1-1.7 1.8-3.5 0.9-1.8 1.4-3.7 0.6-1.9 0.9-3.9 0.3-2.1 0.3-4.1 0-2-0.3-4-0.3-2-0.9-3.9-0.8-1.6-1.8-3.1-1-1.5-2.1-2.9-1.2-1.4-2.5-2.6-1.3-1.2-2.7-2.3-1.6-1.2-3.4-2.1-1.8-1-3.6-1.7-1.9-0.7-3.9-1.2-1.9-0.5-3.9-0.6l-209.4-11.4-75.1-197.4q-0.6-2-1.6-3.8-0.9-1.9-2.2-3.5-1.2-1.7-2.7-3.2-1.4-1.4-3.1-2.6-1.8-1-3.6-1.8-1.9-0.8-3.8-1.3-2-0.5-4-0.7-2-0.2-4-0.2z"/>
</svg>