<svg width="100%" height="100%" viewBox="0 0 18 19">
    <g id="defeat_white">
        <path class="icon-shadow" opacity="0.3" d="M9,.5a9,9,0,1,0,9,9A9,9,0,0,0,9,.5Z"></path>
        <path class="icon-background" fill="#E02828" d="M9,0a9,9,0,1,0,9,9A9,9,0,0,0,9,0Z"></path>

        <filter id="shadow">
            <feDropShadow dx="0" dy="0.3" stdDeviation="0" flood-opacity="0.5" />
        </filter>

        <path
            d="m 8.91922,5.86598 c 0.27141,0 0.5622,0.28866 0.96931,0.70103 0.19387,0.20619 0.40707,0.41237 0.65917,0.63918 0,0.12371 -0.0194,0.26804 -0.0194,0.41237 H 8.70598 C 8.47334,7.30928 8.33764,6.95876 8.33764,6.60825 c 0,-0.37114 0.15509,-0.74227 0.58158,-0.74227 z m 0,6.26802 c -0.42649,0 -0.58158,-0.3711 -0.58158,-0.7422 0,-0.3506 0.1357,-0.7011 0.36834,-1.0104 h 1.82232 c 0,0.1444 0.0194,0.2887 0.0194,0.4124 -0.2521,0.2268 -0.4653,0.433 -0.65917,0.6392 -0.40711,0.4124 -0.6979,0.701 -0.96931,0.701 z M 11.3748,4.52577 C 10.6769,3.7835 9.95961,3 8.79645,3 7.14863,3 5.96607,4.23711 5.96607,5.92784 c 0,0.82474 0.17448,1.50515 0.32957,1.91752 L 5.73344,7.96907 V 7.02062 H 5.40388 4.27948 3.96931 V 8.05155 H 3.31018 3 V 8.40206 9.5979 9.9485 h 0.31018 0.65913 v 1.0309 h 0.31017 1.1244 0.32956 v -0.9485 l 0.54281,0.1237 c -0.1357,0.4124 -0.31018,1.0928 -0.31018,1.9176 0,1.6907 1.18256,2.9278 2.83038,2.9278 1.16316,0 1.88045,-0.7835 2.57835,-1.5258 0.3683,-0.3711 0.7367,-0.7629 1.1632,-1.0515 0.1357,0.4536 0.3683,0.7422 0.6979,0.9072 0.3683,0.2062 0.8142,0.2062 1.3182,0.2062 H 14.6704 15 V 13.1856 L 14.9935,4.81443 V 4.46392 H 14.664 14.5477 c -0.5041,0 -0.95,0 -1.3183,0.20618 C 12.8998,4.83505 12.6672,5.12371 12.5315,5.57732 12.105,5.28866 11.7367,4.89691 11.3683,4.52577 Z"
            fill="white"
            style="fill:#ffffff;fill-opacity:1;filter:url(#shadow);"
            id="path1-6" />
    </g>
</svg>