<svg width="100%" height="100%" viewBox="0 0 18 19">
    <g id="equal">
        <path class="icon-shadow" opacity="0.3" d="M9,.5a9,9,0,1,0,9,9A9,9,0,0,0,9,.5Z" />
        <path class="icon-background" fill="#a88865" d="M9,0a9,9,0,1,0,9,9A9,9,0,0,0,9,0Z" />
        <g class="icon-component-shadow" opacity="0.4">
            <path
                d="M5.31,8.36l-.15,0A.57.57,0,0,1,5,8.25.57.57,0,0,1,5,8.12a.4.4,0,0,1,0-.15V6a.38.38,0,0,1,.39-.39h7.38a.38.38,0,0,1,.39.39V8a.4.4,0,0,1,0,.15.57.57,0,0,1-.08.13.57.57,0,0,1-.13.08l-.15,0Z" />
            <path
                d="M5.31,13.36l-.15,0A.57.57,0,0,1,5,13.25.57.57,0,0,1,5,13.12a.4.4,0,0,1,0-.15V11a.38.38,0,0,1,.39-.39h7.38a.38.38,0,0,1,.39.39V13a.4.4,0,0,1,0,.15.33.33,0,0,1-.21.21l-.15,0Z" />
        </g>
        <g>
            <path class="icon-component" fill="#f1f2f2"
                d="M5.31,7.86l-.15,0A.57.57,0,0,1,5,7.75.57.57,0,0,1,5,7.62a.4.4,0,0,1,0-.15V5.53a.38.38,0,0,1,.39-.39h7.38a.38.38,0,0,1,.39.39V7.47a.4.4,0,0,1,0,.15.57.57,0,0,1-.08.13.57.57,0,0,1-.13.08l-.15,0Z" />
            <path class="icon-component" fill="#f1f2f2"
                d="M5.31,12.86l-.15,0A.57.57,0,0,1,5,12.75.57.57,0,0,1,5,12.62a.4.4,0,0,1,0-.15V10.53a.38.38,0,0,1,.39-.39h7.38a.38.38,0,0,1,.39.39v1.94a.4.4,0,0,1,0,.15.33.33,0,0,1-.21.21l-.15,0Z" />
        </g>
    </g>
</svg>