<svg width="100%" height="100%" viewBox="0 0 18 19">
    <g id="interesting">
        <path class="icon-shadow" d="m9 .5a9 9 0 1 0 9 9 9 9 0 0 0 -9-9z" opacity="0.3"></path>
        <path class="icon-background" d="m0 9a9 9 0 1 0 9-9 9 9 0 0 0 -9 9z" fill="#7979a1"></path>
        <g class="icon-component" opacity=".2">
            <path
                d="m4.75 12.9a.28.28 0 0 1 0-.13.25.25 0 0 1 .08-.1.33.33 0 0 1 .23-.1h2 .12l.11.08a.36.36 0 0 1 .07.1.59.59 0 0 1 0 .13v1.9a.36.36 0 0 1 -.09.24.27.27 0 0 1 -.1.08h-.13-2-.12a.44.44 0 0 1 -.19-.19.28.28 0 0 1 0-.13zm-.06-8.8a.41.41 0 0 1 .08-.24.35.35 0 0 1 .23-.1h2.14.13l.11.08a.5.5 0 0 1 .09.24l-.15 6.77c0 .21-.15.31-.34.31h-1.78a.3.3 0 0 1 -.2-.06.3.3 0 0 1 -.1-.1.31.31 0 0 1 0-.13z" />
            <path
                d="m12.39 14.82a.25.25 0 0 1 0 .12.28.28 0 0 1 -.08.11l-.1.07h-.12-1.91a.27.27 0 0 1 -.13 0 .39.39 0 0 1 -.05-.12.35.35 0 0 1 -.08-.22v-1.78a.32.32 0 0 1 .09-.23l.1-.07h.12 1.89a.33.33 0 0 1 .23.09.61.61 0 0 1 .07.1.27.27 0 0 1 0 .13zm2.2-7.17a2.49 2.49 0 0 1 -.36.73 4.51 4.51 0 0 1 -.48.6 6 6 0 0 1 -.52.49q-.39.34-.66.63a1 1 0 0 0 -.27.7v.2a.22.22 0 0 1 0 .12.35.35 0 0 1 -.17.17.2.2 0 0 1 -.11 0h-1.75-.12a.23.23 0 0 1 -.1-.07.26.26 0 0 1 -.07-.1.22.22 0 0 1 .02-.12v-.35a2.41 2.41 0 0 1 .12-.84 2.91 2.91 0 0 1 .33-.66 3.38 3.38 0 0 1 .45-.55l.49-.42a6.55 6.55 0 0 0 .61-.62 1 1 0 0 0 .26-.67.66.66 0 0 0 -.08-.34.64.64 0 0 0 -.18-.27 1.18 1.18 0 0 0 -.77-.28 1.66 1.66 0 0 0 -.49.07 3 3 0 0 0 -.41.18 2.29 2.29 0 0 0 -.29.18l-.1.09a.53.53 0 0 1 -.24.06c-.12 0-.19-.07-.21-.13l-1-1.21a.29.29 0 0 1 0-.4 1.36 1.36 0 0 1 .21-.2 3 3 0 0 1 .55-.38 5.87 5.87 0 0 1 .9-.37 3.75 3.75 0 0 1 1.2-.17 4.12 4.12 0 0 1 1.2.19 4 4 0 0 1 1.09.56 2.73 2.73 0 0 1 .77.92 2.7 2.7 0 0 1 .29 1.28 2.72 2.72 0 0 1 -.11.98z" />
        </g>
        <g fill="#fff">
            <path
                d="m4.75 12.4a.28.28 0 0 1 0-.13.25.25 0 0 1 .08-.1.33.33 0 0 1 .23-.1h2 .12l.11.08a.36.36 0 0 1 .07.1.59.59 0 0 1 0 .13v1.9a.36.36 0 0 1 -.09.24.27.27 0 0 1 -.1.08h-.13-2-.12a.44.44 0 0 1 -.19-.19.28.28 0 0 1 0-.13zm-.06-8.8a.41.41 0 0 1 .08-.24.35.35 0 0 1 .23-.1h2.14.13l.11.08a.5.5 0 0 1 .09.24l-.15 6.77c0 .21-.15.31-.34.31h-1.78a.3.3 0 0 1 -.2-.06.3.3 0 0 1 -.07-.1.31.31 0 0 1 0-.13z" />
            <path
                d="m12.39 14.32a.25.25 0 0 1 0 .12.28.28 0 0 1 -.08.11l-.1.07h-.12-1.91a.27.27 0 0 1 -.13 0 .39.39 0 0 1 -.1-.08.35.35 0 0 1 -.08-.22v-1.83a.32.32 0 0 1 .09-.23l.1-.07h.12 1.89a.33.33 0 0 1 .23.09.61.61 0 0 1 .07.1.27.27 0 0 1 0 .13zm2.2-7.17a2.49 2.49 0 0 1 -.36.73 4.51 4.51 0 0 1 -.48.6 6 6 0 0 1 -.52.49q-.39.34-.66.63a1 1 0 0 0 -.27.7v.22a.22.22 0 0 1 0 .12.35.35 0 0 1 -.17.17.2.2 0 0 1 -.11 0h-1.75-.12a.23.23 0 0 1 -.1-.07.26.26 0 0 1 -.07-.1.22.22 0 0 1 0-.12v-.35a2.41 2.41 0 0 1 .12-.84 2.91 2.91 0 0 1 .33-.66 3.38 3.38 0 0 1 .45-.55l.49-.42a6.55 6.55 0 0 0 .63-.64 1 1 0 0 0 .26-.67.66.66 0 0 0 -.08-.34.64.64 0 0 0 -.18-.27 1.18 1.18 0 0 0 -.73-.24 1.66 1.66 0 0 0 -.49.07 3 3 0 0 0 -.41.18 2.29 2.29 0 0 0 -.37.21l-.1.09a.53.53 0 0 1 -.24.06c-.12 0-.19-.07-.21-.13l-1-1.21a.29.29 0 0 1 0-.4 1.36 1.36 0 0 1 .21-.2 3 3 0 0 1 .55-.38 5.87 5.87 0 0 1 .9-.37 3.75 3.75 0 0 1 1.2-.17 4.12 4.12 0 0 1 1.2.19 4 4 0 0 1 1.16.52 2.73 2.73 0 0 1 .77.92 2.7 2.7 0 0 1 .29 1.28 2.72 2.72 0 0 1 -.14.95z" />
        </g>
    </g>
</svg>