<svg width="100%" height="100%" viewBox="0 0 18 19">
    <g id="warning">
        <g>
            <g class="icon-shadow" opacity="0.3">
                <path
                    d="M.32,14.3,6.94,2.83a2.37,2.37,0,0,1,4.11,0L17.68,14.3a2.38,2.38,0,0,1-2.06,3.56H2.38A2.38,2.38,0,0,1,.32,14.3Z"></path>
            </g>
            <path class="icon-background" fill="#ec6250"
                d="M.32,13.8,6.94,2.33a2.37,2.37,0,0,1,4.11,0L17.68,13.8a2.38,2.38,0,0,1-2.06,3.56H2.38A2.38,2.38,0,0,1,.32,13.8Z"></path>
        </g>
        <g>
            <g class="icon-component-shadow" opacity="0.2">
                <path
                    d="M10.21,15.19a.5.5,0,0,1,0,.12.26.26,0,0,1-.07.1.31.31,0,0,1-.22.09H8.1a.25.25,0,0,1-.12,0,.31.31,0,0,1-.09-.07.35.35,0,0,1-.08-.22V13.45a.29.29,0,0,1,.09-.21A.22.22,0,0,1,8,13.17l.11,0H9.9a.31.31,0,0,1,.22.09.27.27,0,0,1,.09.21ZM10.1,11.6a.22.22,0,0,1,0,.11.23.23,0,0,1-.07.1.27.27,0,0,1-.21.07H8.18a.29.29,0,0,1-.31-.28L7.73,5.41a.35.35,0,0,1,.08-.22.23.23,0,0,1,.1-.07A.25.25,0,0,1,8,5.1H10a.32.32,0,0,1,.23.09.35.35,0,0,1,.08.22Z"></path>
            </g>
            <path class="icon-component" fill="#fff"
                d="M10.21,14.69a.5.5,0,0,1,0,.12.26.26,0,0,1-.07.1A.31.31,0,0,1,9.9,15H8.1A.25.25,0,0,1,8,15a.31.31,0,0,1-.09-.07.35.35,0,0,1-.08-.22V13a.29.29,0,0,1,.09-.21A.22.22,0,0,1,8,12.67l.11,0H9.9a.31.31,0,0,1,.22.09.27.27,0,0,1,.09.21ZM10.1,11.1a.22.22,0,0,1,0,.11.23.23,0,0,1-.07.1.27.27,0,0,1-.21.07H8.18a.29.29,0,0,1-.31-.28L7.73,4.91a.35.35,0,0,1,.08-.22.23.23,0,0,1,.1-.07A.25.25,0,0,1,8,4.6H10a.32.32,0,0,1,.23.09.35.35,0,0,1,.08.22Z"></path>
        </g>
    </g>
</svg>