<svg version="1.2" xmlns="http://www.w3.org/2000/svg" viewBox="0 0 300 300" width="300" height="300">
	<title>black-bishop</title>
	<style>
		.s0 { fill: #242220 } 
		.s1 { fill: #5c5957;stroke: #242220;paint-order:stroke fill markers;stroke-linejoin: round;stroke-width: 14 } 
		.s2 { fill: #85817e } 
		.s3 { fill: #474543 } 
		.s4 { fill: #5c5957 } 
	</style>
	<path id="outline-fix" class="s0" d="m167 89.4c0 0 4.8-11.7 8.6-17.4 0 0 10.2 8.9 17.4 18.4l-13 2z"/>
	<path id="body" class="s1" d="m107.6 216.8c0 0-73.5-66.8 28.1-151.5 0 0-7.5-2.4-7.5-15.2 0-11 10-18.1 16.8-18.1 6.8 0 17.3 3.9 19.7 16.7 0 0-30.9 28.5-31.7 110.3h30c0 0-1.8-50.5 14.6-75.7 0 0 73.1 61.6 11.1 133l-1.7 2.7h-79z"/>
	<path id="highlight" fill-rule="evenodd" class="s2" d="m128.2 50.1c0-11 10-18.1 16.8-18.1q1.7 0 3.7 0.4c-16.2 4.7-19.1 19.5-19.6 24.7-0.6-1.9-0.9-4.2-0.9-7zm12 17.2c-43.8 32.2-53 100-54.4 113.9-8.9-27.6-6.3-69 49.7-115.8z"/>
	<path id="shadow" fill-rule="evenodd" class="s3" d="m164.7 48.7c0 0-30.8 28.3-31.7 109.8-2.6-3.2-15.9-22.1-3.5-54.8 11.5-30.2 30.9-45.6 27.6-67.7 3.5 2.6 6.5 6.6 7.6 12.7zm24 167.6l-1.7 2.7h-35.4l-0.3-3.8c0 0 74.5-29.5 43.7-112.2 16.8 23.7 34.4 66.4-6.3 113.3z"/>
	<g id="black-foot">
		<path id="outter" class="s0" d="m60 270.8c0 0-0.3-16.1 1.2-27.6 2.5-19.5 18.1-28.1 86.8-28.1v55.9zm176-0.1c0 0 0.3-16-1.2-27.6-2.5-19.4-18.1-28.1-86.8-28.1v56z"/>
		<path id="inner" class="s4" d="m66.6 264.9c0 0-0.3-12.6 1.1-21.7 2.3-15.3 16.7-22.2 80.3-22.2v44.1zm162.7 0c0 0 0.4-12.7-1-21.8-2.3-15.3-16.7-22.1-80.3-22.1v44.1z"/>
		<path id="highlight" fill-rule="evenodd" class="s2" d="m148 221c58.6 0 75.4 5.8 79.5 18.7-5.3-2.2-24.3-7.7-79.5-7.7-53.7 0-74 5.5-79.4 7.4 4.3-12.6 21.4-18.4 79.4-18.4z"/>
	</g>
</svg>