<svg version="1.2" xmlns="http://www.w3.org/2000/svg" viewBox="0 0 300 300" width="100%" height="100%">
	<style>
		.s0 { fill: #5c5957;stroke: #242220;paint-order:stroke fill markers;stroke-linejoin: round;stroke-width: 14 } 
		.s1 { fill: #474543 } 
		.s2 { fill: #85817e } 
		.s3 { fill: #242220 } 
		.s4 { fill: #5c5957 } 
	</style>
	<path id="body" fill-rule="evenodd" class="s0" d="m91 219c0 0-7.6-14.7-26.9-31.9 0 0-23.6-18.9-23.5-44.1 0.1-15.8 12.3-74.5 92.4-42l7-28h-21v-23h20v-20h23v20h20v23h-20l6 28c0 0 86.1-38.9 93 41.9 1 11.8-10.2 32.3-23.6 44.6-3.8 3.5-23.8 22.1-26.4 31.5l-2 2-41-4-37 1-37 3zm39.9-34v-46.4c-19.7-15.8-36.5-13.9-45-2.8-6.2 8.3 0.1 20.2 0.1 20.2l27 30zm57 0.9l27-30c0 0 6.3-11.9 0.1-20.2-8.5-11.1-25.3-13-45 2.8v46.4z"/>
	<path id="shadow" fill-rule="evenodd" class="s1" d="m261 142.9c1 11.8-10.2 32.3-23.6 44.6-3.8 3.5-23.8 22.1-26.4 31.5l-2 2-16.2-1.6 0.2-1.4c0 0 45.4-45.7 49-50 3.6-4.2 22.6-20.6 2-65.3 8.8 7.7 15.3 20.3 17 40.2z"/>
	<path id="highlight" fill-rule="evenodd" class="s2" d="m40.6 143c0.1-13.4 8.9-57.8 60.6-51-13.7 1.1-69.8 9.6-51.1 79.3-5.1-7.5-9.5-17.3-9.5-28.3zm78.4-93h20v-20h23v0.2l-3 3.8h-17v19h-20v17l-3 3zm40 4l3.2-4h19.7l0.1 0.3v3.7z"/>
	<g id="black-foot">
		<path id="outter" class="s3" d="m62 270.8c0 0-0.3-16.1 1.2-27.6 2.5-19.5 18-28.1 86.8-28.1v55.9zm176-0.1c0 0 0.3-16-1.2-27.6-2.5-19.4-18.1-28.1-86.8-28.1v56z"/>
		<path id="inner" class="s4" d="m68.6 264.9c0 0-0.3-12.6 1.1-21.7 2.3-15.3 16.7-22.2 80.3-22.2v44.1zm162.7 0c0 0 0.3-12.7-1-21.8-2.3-15.3-16.8-22.1-80.3-22.1v44.1z"/>
		<path id="highlight" fill-rule="evenodd" class="s2" d="m150 221c58.5 0 75.4 5.8 79.5 18.7-5.3-2.2-24.3-7.7-79.5-7.7-53.7 0-74 5.5-79.4 7.4 4.3-12.6 21.4-18.4 79.4-18.4z"/>
	</g>
</svg>