<svg version="1.2" xmlns="http://www.w3.org/2000/svg" viewBox="0 0 300 300" width="100%" height="100%">
	<style>
		.s0 { fill: #5c5957;stroke: #242220;paint-order:stroke fill markers;stroke-linejoin: round;stroke-width: 14 } 
		.s1 { fill: #474543 } 
		.s2 { fill: #85817e } 
		.s3 { fill: #242220 } 
		.s4 { fill: #5c5957 } 
	</style>
	<path id="body" class="s0" d="m95 218l-44.7-108.9 13.3-1.2 43.4 46.1 5-91.6 11.1 1.3 27.9 79.3 29.1-85 10.6 11 3.3 85 39.3-41.3 11.7 11.3-39 94-2 2-54-3-52 3zm-36.5-92c-10.8 0-19.5-8.7-19.5-19.5 0-10.8 8.7-19.5 19.5-19.5 10.8 0 19.5 8.7 19.5 19.5 0 10.8-8.7 19.5-19.5 19.5zm57.5-45.5c-11.6 0-21-9.4-21-21 0-11.6 9.4-21 21-21 11.6 0 21 9.4 21 21 0 11.6-9.4 21-21 21zm69-0.5c-11.6 0-21-9.4-21-21 0-11.6 9.4-21 21-21 11.6 0 21 9.4 21 21 0 11.6-9.4 21-21 21zm57.5 46.5c-10.8 0-19.5-8.7-19.5-19.5 0-10.8 8.7-19.5 19.5-19.5 10.8 0 19.5 8.7 19.5 19.5 0 10.8-8.7 19.5-19.5 19.5z"/>
	<path id="shadow" fill-rule="evenodd" class="s1" d="m78 106.5c0 4.6-1.6 8.8-4.2 12.2l22 23.4v0.2l-27.9-24.5c0 0-3-1.3 1.1-14.8 1.9-6.2 1.3-10.1 0.1-12.8 5.4 3.4 8.9 9.4 8.9 16.3zm59-47c0 7.3-3.7 13.7-9.3 17.4l19.2 54.5v0.3l-24.9-53.7c0 0-4.6-8.4 2.8-17 3.6-4.1 5.5-11 4.7-17.6 4.6 3.9 7.5 9.6 7.5 16.1zm69-0.5c0 9.5-6.3 17.5-14.9 20.1l2.6 66.7-8.7-63.8c0 0-1.2-9.1 2-13 3.2-3.8 15.8-14.8 9.8-27.4 5.6 3.8 9.2 10.2 9.2 17.4zm56 48c0 10.3-7.9 18.7-18 19.4l-38 91.6-2 2-52.2-2.9 1-2.1c0 0 28.8-7.2 58.1-47.6 11-15.2 26.2-43 26.2-43 0 0 3.1-4.9 7.8-6.7 4.5-1.6 15.8-6.8 11.4-24.5 3.5 3.5 5.7 8.4 5.7 13.8z"/>
	<path id="highlight" fill-rule="evenodd" class="s2" d="m39 106.5c0-10.8 8.7-19.5 19.5-19.5q1.8 0 3.6 0.3c-18.4 4.6-21.1 24.4-21.4 27.2-1.1-2.5-1.7-5.2-1.7-8zm56-47c0-11.6 9.4-21 21-21q1.4 0 2.8 0.2c-15 3.4-20.7 26.3-21.6 30.2-1.4-2.9-2.2-6-2.2-9.4zm69-0.5c0-11.6 9.4-21 21-21q2.5 0 4.8 0.6l-1.1-0.2c-18.5 3.7-22.6 26.9-23 29-1.1-2.6-1.7-5.4-1.7-8.4zm59 48c0-10.8 8.7-19.5 19.5-19.5q1.1 0 2.1 0.1c-14.9 3.9-20.4 26.1-20.4 26.1-0.8-2.1-1.2-4.4-1.2-6.7z"/>
	<g id="black-foot">
		<path id="outter" class="s3" d="m62 270.8c0 0-0.3-16.1 1.2-27.6 2.5-19.5 18-28.1 86.8-28.1v55.9zm176-0.1c0 0 0.3-16-1.2-27.6-2.5-19.4-18.1-28.1-86.8-28.1v56z"/>
		<path id="inner" class="s4" d="m68.6 264.9c0 0-0.3-12.6 1.1-21.7 2.3-15.3 16.7-22.2 80.3-22.2v44.1zm162.7 0c0 0 0.3-12.7-1-21.8-2.3-15.3-16.8-22.1-80.3-22.1v44.1z"/>
		<path id="highlight" fill-rule="evenodd" class="s2" d="m150 221c58.5 0 75.4 5.8 79.5 18.7-5.3-2.2-24.3-7.7-79.5-7.7-53.7 0-74 5.5-79.4 7.4 4.3-12.6 21.4-18.4 79.4-18.4z"/>
	</g>
</svg>