<svg version="1.2" xmlns="http://www.w3.org/2000/svg" viewBox="0 0 300 300" width="100%" height="100%">
	<style>
		.s0 { fill: #242220 } 
		.s1 { fill: #f9f9f9;stroke: #403e3d;paint-order:stroke fill markers;stroke-linejoin: round;stroke-width: 14 } 
		.s2 { fill: #d1d0cf } 
		.s3 { fill: #403e3d } 
		.s4 { fill: #f9f9f9 } 
	</style>
	<path id="outline-fix" class="s0" d="m167 89.4c0 0 4.8-11.7 8.6-17.4 0 0 10.2 8.9 17.4 18.4l-13 2z"/>
	<path id="body" class="s1" d="m107.6 216.8c0 0-73.5-66.8 28.1-151.5 0 0-7.5-2.4-7.5-15.2 0-11 10-18.1 16.8-18.1 6.8 0 17.3 3.9 19.7 16.7 0 0-30.9 28.5-31.7 110.3h30c0 0-1.8-50.5 14.6-75.7 0 0 73.1 61.6 11.1 133l-1.7 2.7h-79z"/>
	<path id="shadow" fill-rule="evenodd" class="s2" d="m164.7 48.7c0 0-30.8 28.3-31.7 109.8-2.6-3.2-15.9-22.1-3.5-54.8 11.5-30.2 30.9-45.6 27.6-67.7 3.5 2.6 6.5 6.6 7.6 12.7zm24 167.6l-1.7 2.7h-35.4l-0.3-3.8c0 0 74.5-29.5 43.7-112.2 16.8 23.7 34.4 66.4-6.3 113.3z"/>
	<g id="white-foot">
		<path id="outter" class="s3" d="m60 270.8c0 0-0.3-16.1 1.2-27.6 2.5-19.5 18.1-28.1 86.8-28.1v55.9zm176-0.1c0 0 0.3-16-1.2-27.6-2.5-19.4-18.1-28.1-86.8-28.1v56z"/>
		<path id="inner" class="s4" d="m66.6 264.9c0 0-0.3-12.6 1.1-21.7 2.3-15.3 16.7-22.2 80.3-22.2v44.1zm162.7 0c0 0 0.4-12.7-1-21.8-2.3-15.3-16.7-22.1-80.3-22.1v44.1z"/>
	</g>
</svg>