<svg version="1.2" xmlns="http://www.w3.org/2000/svg" viewBox="0 0 300 300" width="100%" height="100%">
	<style>
		.s0 { fill: #f9f9f9;stroke: #403e3d;paint-order:stroke fill markers;stroke-linejoin: round;stroke-width: 14 } 
		.s1 { fill: #d1d0cf } 
	</style>
	<path id="body" class="s0" d="m77 265c0 0 1.3-31 20-41 18.7-10 35.3-33.1 35.1-58h-20.1c0 0-4-3.4-4-11l24-16h36l24 16c0 7.6-4 11-4 11h-20.1c-0.2 24.9 16.4 48 35.1 58 18.7 10 20 41 20 41zm72.7-121c-19.4 0-35.2-15.8-35.2-35.3 0-19.4 15.8-35.2 35.2-35.2 19.5 0 35.3 15.8 35.3 35.2 0 19.5-15.8 35.3-35.3 35.3z"/>
	<path id="shadow" fill-rule="evenodd" class="s1" d="m185 108.7c0 12.9-6.9 24.1-17.1 30.3h0.1l24 16c0 7.6-4 11-4 11h-20c0.7-0.3 15.3-9 0-27h-22.4c0 0 48.8-11.1 26.8-57.2 7.7 6.4 12.6 16.1 12.6 26.9zm18 115.3c2.1 1.1 4 2.5 5.6 4.1-2.8-0.3-25.3-3.3-45.5-23.5-9.1-9.2-18.9-18.4-31.5-31q0.5-3.7 0.5-7.5l35.8-0.1c-0.1 24.9 16.4 48 35.1 58z"/>
</svg>